<mxfile host="app.diagrams.net" agent="Mozilla/5.0 (Windows NT 10.0; Win64; x64) AppleWebKit/537.36 (KHTML, like Gecko) Chrome/125.0.0.0 Safari/537.36" version="24.7.17">
  <diagram id="C5RBs43oDa-KdzZeNtuy" name="Page-1">
    <mxGraphModel dx="1000" dy="1758" grid="1" gridSize="10" guides="1" tooltips="1" connect="1" arrows="1" fold="1" page="1" pageScale="1" pageWidth="827" pageHeight="1169" math="0" shadow="0">
      <root>
        <mxCell id="WIyWlLk6GJQsqaUBKTNV-0" />
        <mxCell id="WIyWlLk6GJQsqaUBKTNV-1" parent="WIyWlLk6GJQsqaUBKTNV-0" />
        <mxCell id="pdcsiApNZIq1L77JdlHw-2" value="Frontend" style="rounded=0;whiteSpace=wrap;html=1;" vertex="1" parent="WIyWlLk6GJQsqaUBKTNV-1">
          <mxGeometry x="260" y="190" width="120" height="60" as="geometry" />
        </mxCell>
        <mxCell id="pdcsiApNZIq1L77JdlHw-3" value="User" style="shape=umlActor;verticalLabelPosition=bottom;verticalAlign=top;html=1;outlineConnect=0;" vertex="1" parent="WIyWlLk6GJQsqaUBKTNV-1">
          <mxGeometry x="120" y="190" width="30" height="60" as="geometry" />
        </mxCell>
        <mxCell id="pdcsiApNZIq1L77JdlHw-6" value="Backend" style="rounded=0;whiteSpace=wrap;html=1;" vertex="1" parent="WIyWlLk6GJQsqaUBKTNV-1">
          <mxGeometry x="500" y="190" width="120" height="60" as="geometry" />
        </mxCell>
        <mxCell id="pdcsiApNZIq1L77JdlHw-7" value="" style="endArrow=classic;html=1;rounded=0;entryX=0;entryY=0.5;entryDx=0;entryDy=0;" edge="1" parent="WIyWlLk6GJQsqaUBKTNV-1" target="pdcsiApNZIq1L77JdlHw-2">
          <mxGeometry width="50" height="50" relative="1" as="geometry">
            <mxPoint x="160" y="220" as="sourcePoint" />
            <mxPoint x="390" y="220" as="targetPoint" />
          </mxGeometry>
        </mxCell>
        <mxCell id="pdcsiApNZIq1L77JdlHw-10" value="" style="endArrow=classic;html=1;rounded=0;entryX=0;entryY=0.5;entryDx=0;entryDy=0;exitX=1;exitY=0.5;exitDx=0;exitDy=0;" edge="1" parent="WIyWlLk6GJQsqaUBKTNV-1" source="pdcsiApNZIq1L77JdlHw-2" target="pdcsiApNZIq1L77JdlHw-6">
          <mxGeometry width="50" height="50" relative="1" as="geometry">
            <mxPoint x="170" y="230" as="sourcePoint" />
            <mxPoint x="270" y="230" as="targetPoint" />
          </mxGeometry>
        </mxCell>
        <mxCell id="pdcsiApNZIq1L77JdlHw-11" value="Blockchain" style="rounded=0;whiteSpace=wrap;html=1;" vertex="1" parent="WIyWlLk6GJQsqaUBKTNV-1">
          <mxGeometry x="500" y="30" width="120" height="60" as="geometry" />
        </mxCell>
        <mxCell id="pdcsiApNZIq1L77JdlHw-12" value="" style="endArrow=classic;html=1;rounded=0;entryX=0.5;entryY=1;entryDx=0;entryDy=0;exitX=0.5;exitY=0;exitDx=0;exitDy=0;" edge="1" parent="WIyWlLk6GJQsqaUBKTNV-1" source="pdcsiApNZIq1L77JdlHw-6" target="pdcsiApNZIq1L77JdlHw-11">
          <mxGeometry width="50" height="50" relative="1" as="geometry">
            <mxPoint x="620" y="220" as="sourcePoint" />
            <mxPoint x="510" y="230" as="targetPoint" />
          </mxGeometry>
        </mxCell>
        <mxCell id="pdcsiApNZIq1L77JdlHw-13" value="" style="shape=image;verticalLabelPosition=bottom;labelBackgroundColor=default;verticalAlign=top;aspect=fixed;imageAspect=0;image=https://static-00.iconduck.com/assets.00/react-original-wordmark-icon-840x1024-vhmauxp6.png;" vertex="1" parent="WIyWlLk6GJQsqaUBKTNV-1">
          <mxGeometry x="295.39" y="260" width="49.22" height="60" as="geometry" />
        </mxCell>
        <mxCell id="pdcsiApNZIq1L77JdlHw-14" value="IPFS Service" style="rounded=0;whiteSpace=wrap;html=1;" vertex="1" parent="WIyWlLk6GJQsqaUBKTNV-1">
          <mxGeometry x="500" y="360" width="120" height="60" as="geometry" />
        </mxCell>
        <mxCell id="pdcsiApNZIq1L77JdlHw-15" value="" style="shape=image;verticalLabelPosition=bottom;labelBackgroundColor=default;verticalAlign=top;aspect=fixed;imageAspect=0;image=https://upload.wikimedia.org/wikipedia/commons/0/00/Mongodb.png;" vertex="1" parent="WIyWlLk6GJQsqaUBKTNV-1">
          <mxGeometry x="630" y="196.67000000000002" width="140" height="46.66" as="geometry" />
        </mxCell>
        <mxCell id="pdcsiApNZIq1L77JdlHw-18" value="" style="shape=image;verticalLabelPosition=bottom;labelBackgroundColor=default;verticalAlign=top;aspect=fixed;imageAspect=0;image=https://mintlify.s3-us-west-1.amazonaws.com/pinata/logo/light.svg;" vertex="1" parent="WIyWlLk6GJQsqaUBKTNV-1">
          <mxGeometry x="504.87" y="430" width="110.27" height="27.66" as="geometry" />
        </mxCell>
        <mxCell id="pdcsiApNZIq1L77JdlHw-19" value="" style="endArrow=classic;html=1;rounded=0;entryX=0.5;entryY=0;entryDx=0;entryDy=0;exitX=0.5;exitY=1;exitDx=0;exitDy=0;" edge="1" parent="WIyWlLk6GJQsqaUBKTNV-1" source="pdcsiApNZIq1L77JdlHw-6" target="pdcsiApNZIq1L77JdlHw-14">
          <mxGeometry width="50" height="50" relative="1" as="geometry">
            <mxPoint x="390" y="230" as="sourcePoint" />
            <mxPoint x="510" y="230" as="targetPoint" />
          </mxGeometry>
        </mxCell>
        <mxCell id="pdcsiApNZIq1L77JdlHw-20" value="" style="endArrow=classic;html=1;rounded=0;entryX=0;entryY=0.5;entryDx=0;entryDy=0;exitX=0.5;exitY=0;exitDx=0;exitDy=0;" edge="1" parent="WIyWlLk6GJQsqaUBKTNV-1" source="pdcsiApNZIq1L77JdlHw-2" target="pdcsiApNZIq1L77JdlHw-11">
          <mxGeometry width="50" height="50" relative="1" as="geometry">
            <mxPoint x="390" y="230" as="sourcePoint" />
            <mxPoint x="510" y="230" as="targetPoint" />
            <Array as="points">
              <mxPoint x="320" y="60" />
            </Array>
          </mxGeometry>
        </mxCell>
        <mxCell id="pdcsiApNZIq1L77JdlHw-21" value="" style="shape=image;verticalLabelPosition=bottom;labelBackgroundColor=default;verticalAlign=top;aspect=fixed;imageAspect=0;image=https://upload.wikimedia.org/wikipedia/commons/thumb/0/05/Ethereum_logo_2014.svg/1200px-Ethereum_logo_2014.svg.png;" vertex="1" parent="WIyWlLk6GJQsqaUBKTNV-1">
          <mxGeometry x="480" y="-30" width="28.98" height="47.18" as="geometry" />
        </mxCell>
        <mxCell id="pdcsiApNZIq1L77JdlHw-22" value="" style="shape=image;verticalLabelPosition=bottom;labelBackgroundColor=default;verticalAlign=top;aspect=fixed;imageAspect=0;image=data:image/png,iVBORw0KGgoAAAANSUhEUgAAAgAAAAIACAYAAAD0eNT6AAAAAXNSR0IArs4c6QAAIABJREFUeAHtvX+oXVed978aUyvBFi3aotgyPC2K+AN9RJ/yrWIpY5XqyNBCECtOO3T0EeuD2gfp1IGBikUYS/+wiiijaIuMjFKqIBbraLFWxiA2SZM8bdK0SZrcNmnuuSe3t7k3tzf7y3ud/TlZZ+f82Oec/Xu/CrfrrL3Pj31eWWe935/P+rGd4z8IQAACEIAABCAAAQhAAAIQgAAEIAABCEAAAhCAAAQgAAEIQAACEIAABCAAAQhAAAIQgAAEIAABCEAAAhCAAAQgAAEIQAACEIAABCAAAQhAAAIQgAAEIAABCEAAAhCAAAQgAAEIQAACEIAABCAAAQhAAAIQgAAEIAABCEAAAhCAAAQgAAEIQAACEIAABCAAAQhAAAIQgAAEIAABCEAAAhCAAAQgAAEIQAACEIAABCAAAQhAAAIQgAAEIAABCEAAAhCAAAQgAAEIQAACEIAABCAAAQhAAAIQgAAEIAABCEAAAhCAAAQgAAEIQAACEIAABCAAAQhAAAIQgAAEIAABCEAAAhCAAAQgAAEIQAACEIAABCAAAQhAAAIQgAAEIAABCEAAAhCAAAQgAAEIQAACEIAABCAAAQhAAAIQgAAEIAABCEAAAhCAAAQgAAEIQAACEIAABCAAAQhAAAIQgAAEIAABCEAAAhCAAAQgAAEIQAACEIAABCAAAQhAAAIQgAAEIAABCEAAAhCAAAQgAAEIQAACEIAABCAAAQhAAAIQgAAEIAABCEAAAhCAAAQgAAEIQAACEIAABCAAAQhAAAIQgAAEIAABCEAAAhCAAAQgAAEIQAACEIAABCAAAQhAAAIQgAAEIAABCEAAAhCAAAQgAAEIQAACEIAABCAAAQhAAAIQgAAEIAABCEAAAhCAAAQgAAEIQAACEIAABCAAAQhAAAIQgAAEIAABCEAAAhCAAAQgAAEIQAACEIAABCAAAQhAAAIQgAAEIAABCEAAAhCAAAQgAAEIQAACEIAABCAAAQhAAAIQgAAEIAABCEAAAhCAAAQgAAEIQAACEIAABCAAAQhAAAIQgAAEIAABCEAAAhCAAAQgAAEIQAACEIAABCAAAQhAAAIQgAAEIAABCEAAAhCAAAQgAAEIQAACEIAABCAAAQhAAAIQgAAEIAABCEAAAhCAAAQgAAEIQAACEIAABCAAAQhAAAIQgAAEIAABCEAAAhCAAAQgAAEIQAACEIAABCAAAQhAAAIQgAAEIAABCEAAAhCAAAQgAAEIQAACEIAABCAAAQhAAAIQgAAEIAABCEAAAhCAAAQgAAEIQAACEIAABCAAAQhAAAIQgAAEIAABCEAAAhCAAARmIBAdc+cvP+cuihbdpasH3WXRsntr1HXvjRbdldGyuyrquo9GHXdd1HWfiF50N24sus9FXffFaNHdvrbg7lCpuj/+orvRP6/3/I+uHnQf9u+j99P76m/RXeo/75g7f4bL5SUQgAAEIAABCEwisPKMe4MX8677xPpRd1u05L4ddd0D0Qn3WLTkulHXRRX4W4m6bk/UcQ9FJ9z3YkPxCW8cFt2lUeQ2TfqenIcABCAAAQi0hoCEMY7Yr1JkHgvnD72QLrl9UdetVkDcpzEYGyOud+30cXcw6rpHoq774caiu1Pf12cXlFGI3Lmt+Ufni0IAAhCAQHsI9IVeafVFd/vp4+7nPmLuurURgjmN6DbhuRtRz/A84M2Bhip6xoDMQXt+JnxTCEAAAvUmEHXca/y4e8d9wafDFfVWJ1VfN7Ow6oc6uu4+P/zRdR/VkEi9WwhXDwEIQAACtSagtLUfm9ekuo67K07bLxDRZz4nYdiwwmLM+9t+4qImOx5xW2rdoLh4CEAAAhCoJgEJjGbT+xR1x22LSN9XKZsgk7ART4z8tl/x0HGvqWZL4qogAAEIQKDSBLS0zgt+L7qX4A+LRKskglzL4IoI/Xvt8asmOu665b3u9ZVucFwcBCAAAQiUQ2CM4CP8g8JaZ6PRMwRd9wntY1BOS+NTIQABCECgVAJe8DvuOj9+rzX1RPh1FvZZr31PPFETQ1Dqr5EPhwAEIFAAAc3Qj5fhEdk3J7Kf1QAMvk4bGXXdRwtohnwEBCAAAQgUQcDP2NdGO71If7DTRwThMdgGenMH1F7YoKiInyefAQEIQCAfAvG++HtYnpf58rw2GIc9uu9BPi2Td4UABCAAgdwI+JvaDEZ3bRAtvmO2/+aLGjbKrZHyxhCAAAQgkC0Bv7c+E/swA9mYgTW1p2xbKO8GAQhAAAKZE/C3v82m40dA4Ri2gS9m3lh5QwhAAAIQyIaAlvedXnLHGPNnzD+HNrCmuzdm01J5FwhAAAIQyJRA1HX35dDxh1Egj9ucFdA20JHjLoWZ/mp5MwhAAAJzEohT/6zvb7NAF/PdGQqY87fKyyEAAQhkSiDq3aSHCL0YEWwz50WyAJn+dHkzCEAAArMT0HptUv+M+xfWBlgaOPuPlVdCAAIQyIqAorGo675YWOdPhN3m6L/33Zfct7Nqv7wPBCAAAQjMQSDqukcwAGQACmsDS25hjubKSyEAAQhAIAsCK8+4NxTW8RP9E/1bG1h0V2bRfnkPCEAAAhCYkUC86x/CZMJEWUhb2Fh0d87YZHkZBCAAAQhkQWCj4+4iA0D6v+g2oNtKZ9F+eQ8IQAACEJiRQNS7j3shUV/RIsPnVdrY7JmxyfIyCEAAAhDIgsDpRXcEoay0UDbVnG2wH0AWv2DeAwIQgMAMBKIjbgvij/iX1gaW3VtnaLa8BAIQgAAE5iUQLborS+v8mWzX1Mg+/ffquOvmbcO8HgIQgAAEpiAQ7/x3X7TkuhgAMgBltQFNBFx+zl00RdPlqRCAAAQgMC2BKHLn+iV/S25fWR0+n4vZGNIG1mQE/M2ouFPgtD9rng8BCEBgNAFF+3EHu7rR6QmQlUM64/TpW1L4sMq6DcicLrrbyQqM/j1zBgIQgMBYAor2Nxbd56Ilt8+LfcdFVkaxCUD8icYr3AZ6WQFuGjT2d85JCEAAAn0CqwfdZRbtq3M30beI3+oV7viJqrOOquv+fr0hqy9GHfeafkPnAQQgAAEIOBdG+0nRl+Cb6NtjX6+7KHD9bTRKa1HX3aeVK/zuIQABCLSaQLTs3hpH++oYvSCEYq9U/9A64tlG8Wzad94TddwXyAq0ugvky0OgfQSirntvdMI9Fkb0aR8z/s+4v5nFRpRLrqt7WTBpsH39IN8YAq0iYMKfjOxN/O34uHojOn0yGE2L5rP4PisYgVZ1h3xZCLSDQLxb3x4T9llLon+i/xYYwNVoyX175Rn3hnb0DnxLCECgkQRC4T+96DYGhP94b3x/I1nG4/7Djreg888ikuQ9mpFh8UZAe2A0snPgS0EAAs0kEC27q6KuOzviN7FPinyKOuJP9N/SNrAWnXDfwwg0s6/kW0GgMQS88Mcb95wVwZv4z1i2tPMnmm9GNJ/Fv6NWyvxQ+2Q0psPgi0AAAvUn4PdAl/BL3HP4Q/yJ/mkD/TawgRGof5/JN4BA7QlI+E8fdwf92L4Jv9L59lhlBnU6/37nn0UkyXs0I6sgI3AfGYHad6N8AQjUi4A6nf4Yfyj2OTxG/BF/2sDYNrChVQNsKFSvPpSrhUDtCERH3BalH8+K6nMQfptDQOc/tvMnmm9GNJ/Fv+Oibp5Vu06FC4YABKpNIIrcpuhFd+PGC251IL2fl/DH74v4I/60gSnbQMdt04Zb1e5RuDoIQKAWBLRfv78lb85if5ax4Ja/WUSFvEc7MwR+oiDbC9eii+UiIVA9AtExd74mGfkNfIoW/+NTRj3t7OQRd/7dJ7WBRX/Dochtql4PwxVBAAKVJKBO46x0/7He7P71uNzIs070P6lj5zziP00b2MMtiCvZ1XJREKgOgfj2vAdN3M8qLROQMAH952V0nnFfMiC0gVzawH3cY6A6/S1XAoFKEIjT/Q9oHN4i/LJKrTCg84cBbSCnNrDkulHXfTGK3LmV6Hy4CAhAoDwC0aK73af7j8XiX2IpA0LHDwPaQCFtYI+27i6v5+GTIQCB0ghohrBm9/tIv0TRH/h8on8MEGP7xbYB3WjomDu/tI6ID4YABIoj4Nf0d90noq5bk/jan8bx7XEoynYs9/NE/8V2/AgtvOM2oO282TuguD6YT4JAKQT8Tn4d91B/rL8qkb8mFRL9I0iYkjLbwMbagrtDAUIpnRMfCgEI5EdAy4CiJde1iL5qJeO+hYz7likwfHYdDE7HbeMGQ/n1w7wzBAonoJuF+KV6iTR/0gQk0/xFnSf6R/wxgJVqAyva+rvwjooPhAAEsiMQLbpLNb6XFPKq1en8K9X5E6nXIVIv5hofWN7rXp9dj8Q7QQAChRDQncG80D8fT+6raMnSP8QfA1jdNnB6yR3TckHmBhTSbfMhEJiPgN/Up+O21UH8dY10/jCgDdSgDSy5b2sS8Xy9E6+GAARyIxB13Ue1qc+6ov0w4k/WNRegAueJ/mvQ8ReTasYI1oHzktvn7w7KSoHc+nDeGAIzETh93P28L/wm+BUvifwwALSB2rWBNe0eypDATN00L4JAtgSijnvN6UV3pG7irxUHdP4woA3Utg08ot1Es+3NeDcIQCA1Ae3eNZDyr3jEH5oUlv7VtuPHuNUhXZ//NW5ES24h6rh3pe6weCIEIJANAT/Lv0aCH4o/k/8QfyL/xrSB1ajjrsumV+NdIACBiQTWF+o33h8aAKL/xnT+ZAPyj7RrwXhj0d3JvICJXTdPgMDsBLQM5+Wjbn8opnV8TPSHAaANNLINPMCdBWfv33klBIYSkLPW/tzrz7mlOgp+eM0s/Wtkx1+LKBXTUUjb26MdSId2ZByEAASmJ6AxtrWF3o5+vtTYv+rPu8jqybKq5+mEC+mEEWRS82W2gUXdfGz6no5XQAACAwQ0tmbi7kV94Yzo167O0r8yO2U+G1NQZBtY44ZCA105FQikJ6C0f9R1j5j4+zIQ/4Hjlgmo+Hkm/xH9kwFqWRvQFsLsHJi+4+eZENAGGxrvHxB9E/e6ls+3rOOrQbR5/MDm6MThTUVGhXxWDdpF5iat4x7ShmX07BCAwAQCGjvT5j4DEX5dRT+4bib/Vc8A3fKZzdE9d78DUW6jKBf8nXVbct1HYEL3x2kItJeATfaT+DfpT3MVMo8qCu7Amnb9Ox510ZYtr4o+9vFro307LuDfh/aUfxtYcl3dsKy9PTzfHAIjCJx61n1WQhmm/c0EJI9bvS7n2fe/egbog+9/ZbRlyxZvAG790pX5d/4ILIx7bWCDyYEjRIDD7SQQdd0XTcybWDL5r1oG4Cf/vsmLvxmAaz/2sehX91+KQGFSimoDG9rKvJ29Pd8aAgEB3VpzQPQPJ9L/Na9rr4Kmpc/r/H006e+SN71qwAB87OMfiz55w4eiFxeYEFjnf9saXvsXWSEQiAEP20Vgo+Pu8un8mov82pjrZ/JftQzQ7bdu7ot/mAFQFuC733obZo0sQLFtYNHd3q5en28LAefcqQX3Yx/5m3g2tKxhVFJsB1ig4Oze9oro1a8+E/2bAVAGQAZA5aE95zX2+9MWq2VG7d9DgRCiAIHWEIi67j4fNUv0G/zHbX+r1eFec3Vv4p+E3/60CkDib39MCKzWv5mJZMPLjWjJfbs1AsAXbS+B9efc7/qir1n/ZgBs6V+D6kz+q46Y/OzeMxP/TPyHZQBkBB5+8I1kAQrMzDRc3NO3pRPue8wJaK82Nvqbq2GvH3V/7gu+CX1TS9b+p+/4chabk0fPid58+WDq30xAMgMgA3DDp/420msQpuoYuBb9W9yHCWi0FLbvy6lBb7zg9vQn/DVV9IPvRfq/OuLxta8OTvwz8R+VAZAJ+NH334IByNmYtUjUp21LD0SRO7d9SsE3bhwBNeSXj7r9rYn8YxMQdaojgG3uaDWp78LXDo/+zQDY+H9YakLgwt7N03bcPB/TkFUbwAQ0Tg1b9oWiI27L6mG30DbxZ+1/dczP1uvOnvg3KQNgqwJu+8oVWXXmvA/GYJY28Ij60JbJBl+3CQR09yt/R78gLd4WI8Da/2oYgN/+cvjEv0EDcGYJoAm/Svt79KELZ+m4eQ2Cn0Ub2NAt0aNj7vwmaALfoSUElPb34n/Ivbx2qDfT/2Rc9k2A1Rt4vs0p96p891MvnBO98+2jU/9mAjQJMBR+DQOE9ZtuujpaP14NQ1MVtlxH4e3hEeYEtEQ8m/A12zjmb8aG9H/hnePQSOuuO0dP/DPxV2mRflL4w/pP77186GcghNX4t27Jv4PmBGxqgj7wHRpMYO2Q+5PE0CL+tpWk/8sXBU3eGzfxb9AAjM8AyAhcf/1HouMHmBDYEqGtrtk74b7XYOngq9WdgN/eNxB/n/4/dMYMNL5+uHzxo5N20Y03jJ/4N2gABlP+YeQfDgV8/Y73VFcYGG9vz78N9w6ou0w28/rXFtwdbY78lekg/V++AfrjbyZP/Bs0AJMzADZMsGsbEwIxmOW38ZePun9oporwrWpJQPe27ou/RfwtLEn/l9s5arJemol/gwYgXQZAmYHP/NNVEds7l/tvjAHx/DeiZXdVLcWCi24WgdWD7sOIf2+lA51TueJwzzc3n3W3v1Dshz2etAogOSTwi//8m4hNnsr9d+Z35vmvRB33rmapCd+mVgTUAJPir1S4n/gXl22pk/4vVxSef+q86OKLJi/7S5qAcJw/KfbD6poQeOLwpvaMOTO/oMr/1ourB91ltRINLrYZBKJFd+lab52/X+sfir4m+7WtTmq4XAPwv29OP/EvNAHTZgBkCr75jXdVWRS4thaZltPH3cHlve71zVAVvkUtCGhnKm30Y9F920tlQUhLlsdgx6MuCkV9msfTZgDs+ft2XMC/eYuEttK/7xPuMbYMroV01v8itSNVf3//lqX5LbNhhsfq3PmvPPFXx/zB988W/csozJIBUBbgls9/gAmBGIDqmMCOe4jdAuuvr5X/BmvPuidM+EwI216S/i/PAPzgO9Mt+0tmByyin6X81f2XVkcAEOPW/1ucPu5+XnkB4QLrS+Dlo+7Btot98vuT/i9P/DUZ75I3TT/xLzQBlgGYxQBs3XoNEwIxHpUyHhsdd1d9FYYrryyBaNHdnhQ/6i4i/V+eAfjyLen2+w8FP/lYwj+L+NsKgXvufkelBKDSY9WYhSLaysbGoruzskLChdWPQLToruyL/YHeDH/qPQ6k/8sxALu3vWLqNf9J8VfdMgAm6NOWMg+H9pxXRMfOZ2Ag0raBjajjrquf0nDFlSMQddxrVg+49b7ga+IfJqC/zJGIqxwDcM3Vs0/8C43AvBkAGYZbv3Rl2o6Z5yHiRbWBtZf2uUsqJyhcUL0IrB5yB/xmPyb6lF78ZYLY/Kcc8f/ZvfNN/Bs0AOnuBTAqM2DDBw8/+MaiOnY+BxMxsQ0oM3l6yR2rl9pwtZUioLv7+chfom9/YQYgNAMtPM/e/8UbgBcXNkWX/Y/5Jv4NGoCPRaPEfZrjN3zqb6OTR8+Z2DGTMSq+zbSSecdz3tDE7UqJChdTDwJR131C4q/d/vomYJT4t/H4ITqyMjrW22+df+LfoAGYLwNgJkGZgB99/y0yABtlcOEz+T0OtAEZgJ4JUPmFeqgOV1kJArbNbz/qt+iesp8JWVugwxnocApIyz69c1N0wQXZRf8yApbCn7c0I7CwdzNZgALaQtFtr46fp2GAeJKy7h741kqICxdRbQJR5DatHnSL/agf0e+LfmiIWP5XvAG69ppsJv7llQGQCbjtK1dgADAA1WgDZgCUCVhyXXYKrLb2VuLq+pv9IPxDhd9MQD+9RmdXSGf3i//IbuLfoAGYbx8Ai/ytVCbh0YcuLIRJHaNSrrk442wZACujjttWCZHhIqpJYP2ou80EjjKY+JgwQ6T/i+vEJBiaXPfmy7NN/ZsJmHcfABP+sLzppqujUy8wIRCxL/Z3Moy3JiqbAfAlmwRVU3zLvqqo495F2n+06IeGiPR/sR3b176a7cQ/E3+V8479j3r9T++9nCwA2bHS24AX/YQJiJbdVWXrDZ9fIQK6laS/vW8i0g1Fj8dnzIF+VMPcNsey56Jd9i58bT7Rf88AZLMKIMwA6PHH//7a6Pmn2CGQ30T2v4lpmPajfzMBx/31rGqDtwpJEJdSJoFTR9xOBP6MwI9jwc1/iu3Qtl6X/cS/vDMAlhX4+h3vwSiSBSi3DWgioMQ/8RctuX1lag6fXRECunuUv70v0f/YSX9mCtj9rzgD8Mff5DPxb9AA9DIAJtpZl3955HXlCgAC3Hr+A/MAAiMQdd0PKyJDXEYZBKKuey/iny7yNwOgH9M0KTieOxuv9eMueufb80v9mwnIWvDD99NjTQjUd6EdwKCsNtCfBxCIv2UEtOFbGdrDZ5ZMoL/eP478V57uCSHleA5l/Yjb9rn3fDO/iX8m/irzWAWQNAE/+8llGAAyEaW1gQkGgPkAJWtxKR8fnXDfM7G36Jb6YDYgyYPx/2KiOE2eu/ii/KP/ngHI5l4AoeiHEwJ1/PrrPxKdOLypNAFom3nk+579O7WIf1jJ/gClSHB5H6olf36P/wMuMpGjHB/5iw/j/2d3LHl0tjd/Ot+Jf0VmAMwMfPMb78IAkAUorQ0ME/7wWPSiu7E8ReKTCyPgU/+H3YKifoma/VE/wyI0QyEf/WDyEDze8wzXP/8+/4l/gwYg/wyATID+9u24gPaDCSilDYwbBtg45n9/q2wVXJgMl/dBmvVvKX8TfcrJmRAxQqjzZaBO6n3/s5jUv5mAvOcAWAZA5S2f/4DdnIW2hBEotA30DcCxeElgovSbm3XcQ+UpE5+cO4HVg+4yE3uLbCkHI/9RPBj/z1f8Za5+8J1io3+bAzBu/D4U8Hmfp/f61f2XFtrxY1rzb7d1YaxIP0z79+t2XJkAdgnMXYdL+4DVQ+6AGQCVJxNDANTPmIEkH7b/zbcjPX5gc2ET/yz67xmA7HcCHGcUtm69hgmBRP+lmECJv/qxcaXuGliaQPHB+RHYWHR3mviPinI5fsYAJFkohVYXp1/H67zlM8Us+wvF3zIAWUb548TfPueeu99BW8IEFN4GfPR/LDYBMgLxnzcFQT3quvvyUyLeuXACL+1zl2jWfyhqFu1TxuP/cTZkGA/dJKmOolqXa97xqIu2bCl27N+MQJFzAEJzwIRAflNF/z4VxJjYjy012XnZvbVwoeIDsyegWf9rz7onQvHn8ehIfxgbbv+bb2f9wfcXt+zPhN9KiXIozBal51nqvW/90pWYSrIAhbcBRf0Sf/sbVT+96I5kr0a8Y+EE1o+62/x4dmLZ3zCh49hwY6AfS9FuvS2f95N/L37in4m/yrIyADIBD/3yYtoVJqDQNpBM+4/NBHTcXYULFh+YHQHd8nH1gFtH2IcLe1ouEeP/uXRS2h3vkjeVk/o3E1B09B9+3idv+FD04gI7BLbF7Fbhe9oEQMsAjCtlFqJFd2l2isQ7FUpAt/lNK3I8b7hJUPakCj/cJl7D7beWM/HPxL/sDIDMwHe/9TbaF1mAwtqAzQMYJ/zhOW4bXKhkZ/dhG4vuc4j6cFGfhgvj//kYoKd3bope/epyo/+eAShmJ8Aw8rf5BTqmv4W9mwsTgCYaSb7TdL/RUOBTPT7qbstOmXin3AloS8d+6v+pWAQpe9seT8lBPxA6mOwZXHtNeRP/hmUAhgm0CXXe5W1fuYI2RhagsDbgJ/49H08ETFFuvOBWo2Pu/NyFiw/IhsCpBffjgSjXRM82/qHevweC5zSGB+v/sxf/n91b7sS/QQNQXgbAjIXMx8MPvrEwAcDQZt+m68S0Pw9A4m9/Whlgj0NTED9++ah7MBt14l1yJbC8173eR/8mapQzRf4rT/XuDlinH3YdrvXk0XOiN1/+qkqk/6swB8BMwE03XR2deuEcTACZgNzbgJ8HEIq8if+EUneRzVW8ePP5Caw/534n8eJvfgbs/599pPS1r5Y/8a9qGQAzAT/6/lty7/zrYBK5xux/d0mmA9F+GPmPeXz6uDs4v0LxDrkR0O5N/ZR2GPmbIdAQgD3m/JnMgDFJ8NGPJPnDoT47k0N7zosuuKD8iX+DBqDYewGY2CdLDQN8/O+vjZ5/6jzaHFmA3NuAn/w3RuxHGQRNLs9NwHjj+Qj4ZX8mZpSDZmcGHhorQ/CzY7D1umpM/Bs0AOXPAQjNwNfveA9tDgOQexvw8wCmNAB+8uBzbmk+leLVuRDQbRz9PvYzCN1AVoDX94zD09kJHybCRb/9ZXUm/g0agGpkAEIT8JdHXpe7ANAm2/377s8DmNIE+FVRi+72XESMN52dwOpht4CQJ4Y45jAz3AAouw5Sk9ve+fZqpf7NBJS5/C8U/fA6NCFwnewTJijnTMioNP+k435ZYOQ2za5WvDJTAn7Tn1jslhOiR33QFKTlwQZA2RmAu+6s1sQ/E3+Vdi+AUIBHCXNRx3UtP/vJZQhgzgLY9iyIonn1c6Hgp61HS+7bmYoYbzYbAd3tb2W/O0X0Pyj08/Jg/D8bA6Bd7i58bTWj/54BKP5ugJPMhozG9dd/JDp+gB0C2y7SeX7//oZACROwnqIeZwHOnU21eFVmBDYW3Z2a+W+RLWXPCMzLIc8fXpve+8Ybqjfxb1gGoKjofprP+eY33qUswEab2gvfNRvjnYajghyL+GcpTx93P89MyHij6QlER9wWxD9788MNgLLphP74m2pO/Bs0ANXLAFiGQGZh17YLGQpgKCCXNuAnAiraj/+8CZiirizA8nPuoumVi1dkQmB9wf183kiX15+dMWADoPkNgCaxVXXi36ABqN4qADMAKj/zT1dFbEc9f3tMExG38Tkm+kPL5+MMwcKIUisInnO/y0TMeJPpCKw8496gZX8S8FDEqc/PQ5Ni2tgZZPmd7/lmdSf+DRqA6mYAzAj84j//hvZIFiCXNqC+LhR/PZ65eZWhAAAgAElEQVSmrtevHnSXTadePHtuAmuH3TZNdFveG0ewlH79fhY8mAA4nwHSbnYXX1TdiX+DBqDaGQCZgK1br4lOHN6UiwBkafp4r/l+N2Xwsx0BQ9HXkMA09ajjts0taLxBegJR173XxN9H/HvjTABlLyMyBwdxLeOH2KTP/N83V3vi36ABqNZOgBb1J8t77n4H7ZIsQOZtwCYCWuQ/aylNSq9gPHMuAtryN4x0zQQkTQH1XoZkGj5MAJzPAO141EWhwFb9se0DMM3s/KQ4F1Xft+OCzAWgScaT7zLDb7fTi/bDiN9MgGUC0tQ3XnB75hI1XpyOQLToLjVBkwngL1sGTACcoRMJIrMPvr8+0b/MSVHiPe/nyKDc+qUrMQBBW0Pw5/utGj8T+HlLbhecTsPnepZmXZoBsAifMru5EEwAnL1T+cF3qr/sL5mRqFMGQCbgoV9eLBPA3gAYgczMoJ8IeDjOBMxRMhdgLmmf/OLomDvfr/sn8s8t88GSq9kMgCapXfKmekz8C03AvJF50a//5A0fil5cYEKgRa+Us/1eQ27aEdBH/3OIv71et6SfrGQ8YyYCpxbcjy3lb1E/9cHofx4eYhr+MHicnseXb6nHsr9Q/HtDAL1VAEUL+Tyf991vvY12SgYgszbgJwJmIP4yAetH3Z9nEjdeNJ5AFLlztee/CRxltmP/4skEwPSCH5qj3dteEb361fWL/nsGoB6rAELDoMeH9pyXmQCE/5Y8nu03UHdumvuUyd8C+wKMV/IZz0aL7nZEP3vRD5kyAXC2zu+aq+s18S/MAtRpDkBoApgQOFtbrbtQ53X9lsI/ywRoT4Bx5mDI+ZePugdnlDleNorA6kG3GIoVj7M3A0wAnL5T/dm99Zv4N2gAqr8TYCj8tlxRxx5+8I1kARgKyKQN9CcCjhP7NOdiQ6CM9Sgt4/iUBE4+425A8LMX/CRTJgBOZwA0Ge2y/1HP1L+ZgLpmAGQEbvjU30YnjzEhMK+ouE3v6ycCphH4lM/RXWp1q/oppY6nDyOwesgdSIoV9WwNARMApxN/dY6331rPiX8m/iqHRdcWZVe91LX/6PtvySQCbJPY8V3P/q0r+Bmb6k8p/PYe68+5pWFaxrEpCWiLRcQ+W7EfxpMJgGd3CuM6yqd3boouuKDe0X/PAFT7XgCTTIhMwMLezZgAhgLmbgMm3lmVUdd9dEq54+lJArrpzzDB4li2pkCNfpzgcW6Qz7XX1HfiXzIDUPcswL/+y3tpuxiAudtAVsLff59n3RNJPaM+BYHl59xFtuvf8hOx4FH2NgHKmINmwSLy6Rj84j821XbZXyj+TcgAWIbgL4+8jvaLCZirDWgi4MlD8VBAXFo9Wa6lPK+t66eQPJ4aElhfcD/3kf4osbMdATk/3BRMwUe3xcQATGZw6oVzojdfXv/UvxmBOkf/Jv76DjfddHW0fnzyvx9tHEaj2oBfCXAoYQLmrLMkMFT0KR77jX+echGRfzGZD1YApOsYv/bVzY0Y+z9jAOo9ByA0AT+993JMLFmAmduAdgRMRvoD9cAMDBw/HL9uyHk/tHrEbZlC+niqCGx03F1e/BXd85cvA7YATtVpaPe5C1/bnOi/NwRQv50ATfTDUo+vv/4j0fEDTAgcFeFyfLzJ9ysBTMQzKmUUpGWo+pQEbOOfbij+e11EPTBEGfFgBcD4jsE6zq3XvbIxY//JDEAThgJkAr5+x3tSmTn7N6VM1/bbwslH9hmJv+YJ6P1YEjil+Ou+yv2x/9AA8DiXTIAaaVt+4LN+zz/+pjkT/0z8m5QBkIExE7Nr24W0Z4YCZmoDStmrP8z6T8vZp5TB9j795H73azMAFvFT9iL/PDiwAmC8AdLksne+vVmpfzMBdd4J0AQ/WX7mn65S2nUmAZjVIPK6ZvD29wRIGACL5M0UzFJff879rr2KPuU393f9eyKR7qc+OPyRIQ9WAIzvvO75Zv13/DPBT5ZJ8WxK/Rf/+TcYALIAU7cBWwpoYp9VuXbIvczWwCmMQNRx12nSXx6RLu87nCvRUnsNQDiRrinir+8RG4ANIvPxbRs+g3x0T4AB0T+QXT3quC+kkMB2P2XtkPtTKP56HNaTIs75+fhoqIVOYDIDbf3blN3/wiyAxLJJwn/bV66Inn/qPNo00f9MbUDBkCZF52ECdE+bdqv7hG+vFMnKXreRFHnq40V+Hj4rT08WPwzCGUa6/W/d7wA4aACasQ/AJ2/4ELcHRvRnEv1k/+bF30xAxuXKM+4NE2SwvaeVIrGInrIn+nlzUGNP/gCoj2ei2wB/+ZbNjVgSWPcMgK7/u996G7cFRvwz68f8SgAJfw5/pxbcj9ur8BO++co+t6+754zw+ciWuh8CkRHIgwcrAMaL/TgztONRF13xvnqvDqjzKoBbPv+BaN+OC9Txa6yf8X5MQCYmQH3iRPHXSoFxBmHEefYEGGECoiNui8aj8454ef9BxqwAmN0AyBxozPAH39kUXXxRPY1AHcf/t269JvrV/ZeGwo/4I/6ZiL9+034lwDhxn/McewIMMQEbi+7OgQjXIn/KninKiYP2vx4X5XIuHR9NPLv50/W7RXDdMgDf/Ma7opXDr1gPon6L/jEBmIBM+jJ/T4A5RX5cdkA3uWNJYMIErB52C/30f05ix/vH0b/xfSKduGEC0nP6w4ObarVpUB0yALpG3e0v3uFvLeq6YX8YAAxANgbAVgLkZAIYBkiI/0v73CWIc0KcTaRzLFe4CVAmHUbSIOmWwXfdWY+7BlY9A/Dxv7820l3+Ti/2x/mHiX94DCOAEZj7dz0ugs/iHMMAgQl4ab+7zxsAiR1/hTFgCWD6yD4p8mnqunvgx66t9rCAousqZgF0TVrTH9/dLxT4SY8xABiA+Q3AiEl8WYi/3kPDAIEEtvvh8pNuifH/2Pxo46Mco34/CTJ+f5YA5msAzCT84j+qu3dAFTMAwZp+ibn+Jon+sPMYAYzAzEagvxTw6d5sfwVLXvwzqmsYgHkAzjl/5z8TPaL/wqJ/mQyWABZjAGQEqrp3QJWif12L1vTPIfqhEcAAYABmNwBaCpgQ/X7d5gbMeT5adFe2O/R3zunOf6T9yxn60HIXi1Ipi2Gxe9srog++vzrDAlXJAGhNv4ZMgtn9oZjP8xgjgBGYup+zpYAW+edRRl33QOsNgNL/Iw3ApMwA58dnDCbwYQlgMaKfNFdV2jugzAyAPjtY0z+PyI97LQYAAzC9AdBNgRThP+0iL/7x4yzrrV8NoH2R+2PSpP/Hi3kOfJLCRL1YQ6AJbmXvHWAZgDKMQGJN/zgRz+IcRgAjkNoI+L0AAvE3E5BpecBF0bJ7a2uzANr8Z2T0n4Pg8Vlnhhq4C2CxYj/OXP3xN+XtHVCG8H/mn66atKY/C8FPvgcGAAOQ2gBEnTORv0Tf/iwDkEVd7xUtuW+31gD09/5H7AuP/tkDoDoGQOZg/bgrZe8AywBc+7H8lwPOsKY/KeJZ1DECGIFURkCz/jON+IdkFFp9i+AX97p1ovIzUXmRLNS4x0WlnCuHT9F7BxSVAfjXf3nvLGv6sxD85HtgADAAqfo+LZO2SD+v0vfDkTu3dVmA1YPuwwOCt2uCEHJ+fJZgSj5a54rIp2MQz04vlFdRewfkHflntKY/KeIT61p2OWH/AIwARmDsb1p9ZFL4lbYPhwHCx5YtCI+Fj4ed17Go477QOgOgnZAGDADDAOMFPmM+LAFMJ/4ySbrt7z9++pXRwt7NYzuMrA2VROz2WzdHr351fncaVAYgjyyA3jPDNf0TBd/EXszuufsdkW7OZMdGlBgADMDY37P2SUkagDzqa4fdttYZAFv+17HINS6px5mQnHlwG+D0BkDCrr39dcvfe7652d8COGuxH/d+ee4dkEcG4NYvXRnt23GBOleJrP5SC/g8z33olxf7ZYU/+v5b7LPTfC5GACMw1AgoSMpD8JPvuXrArbfKAETH3Pk++pfI2Z8iXHscix/1gEnGfNgDYDoDoLX711zd28Dnff/zVT4rME60sz5newdc8qZsswFZRv/XX/+R6OEH36jONI3wZvYcDdHIdOi7aK7BlJ+PAcAADDcAx4oxADIE0bK7qjUmYP2ou80ifcpexF80h6wFqg3vpyEAZQG2bNni/275zOboxGE/1jy0A8mDSdZ7B0g0szABBa/pN/Pghxm0ukDfQZsKzXDzIHsvjABGYOB3rCBJq6V8xJ5z2aqbA6085f6i6N6LXhj1Jx5zPsgAJNjMxW/PdNFvHkJW1/fU5DwzABqbV0T+k38v1gSIXVZ7B8w7BFDSmv41ZRpu+NTfeuE3A/OXR143bfRv4q8SA4ABGDAA+p0VIf4yGasH3WJrMgDLT7pTAxFvYAZM9DkfZAYy5sMmQPMZoM/cePZe/hoeeHpnsUbA9g648LVnshJmTtKWs2YAylrTr4yL0vx23VZq4l9G8w0wAhiBvhHoj9fnnAHw+7IccVsabwJ0979Q5PU4rIeRrZ3jfC8TMIyDMUpys/qw82wCNJ8B0EzzN19+tuhecMGroq99dXN08ug5/Q6kiEzHPHsHWPQ8TVnWmv6f3nv5WcKv61YWIiPxJxOA+A/8dv1eABL/Av5ePur+ofEG4KX97j5NABwmZiZalPnyYROg+QyARP3Pv9dQwNkmQJG3zMFvf1lsNkDXpOGJYcZkXDbAIug0QwFKuceT/BQl6y9Moef2WCsKJPKjrnXXtguzNAD2PcgEYAaiIg2A5gFEkdvUWBOgL6ftfy0qHVaa+A87F5oGzvdMQpJDGn5q1EVEpk3/DEX7o8RV2YCt11V/74BRomqGwM6XtaZfkwvtGqy0a1MZL/kz0c6yxABgACK/GVAB0b82DFo97BYaK/76YjIAiv6XyQCUmgHRBhdNF+civp/G4K943/AsgIyBJglWfe+ASfcCuOXzH4jinRALjfptTb+JvspQ+FVXVuDUC364Jc9sBEagxUbAbwZUgAHQEINMQNTkbYFPPes+m4xYqQ+P5PPkwi6A2RkgTfxLMwmvqnsHmMAmxVVL6iTCRaX57XNkNmQ6Rl2XXacmIabY7S+LjAAGoMUGwG8GVJABkAlo9DyAk/vdr/MUNt47nZlgF8DsDIAyDT/4zpmlgaOGBOx4WXsH9FYunJ2tMEENyzLX9JvwqwyvKazr8a/uvzSPcf9xhgEj0EIjoL6yiAmA9hmN3g+gu9sdQaTTiXSenLSrXBEp8tZ8Rsf58X4T+UlllfYOMMGV2CqlHm/hO04IMz+niYW6aZBdSyj2w0zA1+94T+GZCfYJaGef0d8MqKAsQKNvD6z1/93H3ekBcds5KIicz5eP2LdGmAuMWLQD3bTb9FZh7wDNAdAWvlpid3qx2L37tab/tq9cEdlOfpOEX+dlFFYOv2LdhgxKKMkEFPi7KruvUrCk6Hw5NgBWWsRu9WQ56/nG3hcg6rjXDAh/vP6fY4MGKG8e3ScwAHl1Kr99IP1QgGUJNFGwzL0DFE3PsX3uzNmAYWv6h0X7oSnQ43jJ38yfm4FhwAC0yACorzAxH1Wa+Gd1fvWgu6xxqwE2Ft3ntETNIvxk2YkzAcnjVud8zygYj2SZlg+7AOZrgL58y+ilgSb6w8qy9g4IzJCELXdhDdf0TxL85Pkp7/KX93fBCLTECGg3QPWbEvgiSt0rp1EGQMv/lp9w9+cd3fL+k7MJasRBp8/jjDsxLUt759vPnmw3TPSTx0raO6AQ4dfuibam34Q9jO7t2KhSKwOK3HwohRnCAGT826lqv2T3AyhC/NU/v7TfPdQoA6Avow2A/A6AiUg/GblSH4z0s+ahxlzVH1pTrmvHoy6SmCcFPm294L0DcjcAmrGvZYVJwR8l9sOOB3sR5B3ZT/v+GIGGGwHtnFqU+OtzGrkhkN0ASFG6pa8tYqc+OPEvTx5sA1yMAbrrztmGAkKTkPPeAbkLv9L9t37pyv7s/mHCnjQFw+rxkr9phbmo52MAmm4ADrloZW/PBEigvRnIsa4sQKMyAH4CoM32p/S7AFpkX3TJNsDFGADNHtYs/1DQZ32c094BeRqASFsH2+z+WYVfr9MqgYql/kcZC4xAQ42AtgMORb8/F8DMgM0NyKq+12eB390YE2A7AFpkq9L+wowA53uZAGMT8khysuckj1t91Hm2AS7GAGg4Y2HvZr8V8KzCH74uw70D8hT+tWFr+odF9ZNMgV6j5YklL/kbJfbDjmMAmmoAFgajf8sC5FXKYKwtuDsaYwAGJgCSASg1A8A2wMUZAJmAn907/dLAUPiTjz/4/ldGu7e9Yp55HLkYAFvTL+FOCv4ksR91/i+PvK4u0X9oCDACDTMC6jNN7G0oQKU9HsgOWBZgxvP2OWuH3J8aYwD8BMAw6g8mAvood2dvXkA/auV872ZBMTMNExgb4xVG+tOcZxvgYg2ATMDNn85mKEBmQPsGaILhDHsH5CL8Ss9rTb+l+5PiP8wQDHtO0gTcc/c7JP6hsNblMQagaQbg2BkDYAKdd7l60C02xgCc2ONWJVj+jwxAqRy0tWVTZtvX5XtoCZzW+Sej+Xnrfu+ABzal/ffM3ABoUx5tHzxJ0JPiPqke3OWvLqI/7DoxAg0xAuoz8xb8Ye8fHXFbam8C9CUserVIlTJeCRFH9kXy4D4A5RigP/9eQwHZmwCZiK3XvdLPNxhhiDIX/nBN/yTx1/k0zzFToOfGS/6GiWqdjmEAmmIAOsUbAA0vRIvuytobgJPPuBu0A6BEzjIAYRo7FD/O9zjlyWeESKSNInneHJ2a0vbzRv2jXm97B6yfneHJ1ACEa/rTCruJe5pSwwk1mfWf1oxgBOb4zVSlvxoWoed9rBETAV/a7+4LRd7EjdKdLpqLjFhVflBtvA6J8xXvyycLYMZAewco25C1iCbX9KcVfz0vzXP1nAru9pdW5Mc9DwPQAAMQTvjLW/j1/it73cbJ/e7Xtc8ALD/pdiP2xYv9UHPBjYBKN0BP79wUXfjafE2AJgre8plXRkrVx0ZrnEBNOufX9JuQpxHzNJF+8n205O/5p87L3LhUaCIhRqDGRkA3/PHC/0Rx5dqz7okmGICloWKk2wKXMAbeZjOiBtzGyLtq3/kH38l2aaBF/2EpE6C9A7QMcVYRHLamfxZxT4r9sPpDv7x45uuc9fsV/DoMQI0NgN/8p0Dx91mA/e5U7Q1Ad5dbb7PoVsnkqBFXTQzbej2auBcKdp6PtSOhMg8x60kR/1pyTf8wwc7SCPzrv7xX1yaBnHhtDXgORqCGRsDuCLhcoAnw922J3KbamgDdBTAp/hLEUBSpF8eDGwFVxwAdP7DZR+h5Cn/43soIaBLiJBOgSXgS/PAvS7EPzYQef/KGD0Unj82epaihIcAA1NUASPyL/OutBLi0vgag494Vin3SDFAvdhiEGwFVxwBIiH/7QP5DAaEJ0GO/d8AvzxZcTfJLs6Y/FPAsjIH2EmhR9B9mODACNTIC/o6ARYp//FlR131UgXQtTYC/B0Ac8VukTxkviSyBCwagWgZAJuDLt+S3NDAp/lZXNuDGG14ZKQux8uwrTn/zG++KshDzacyBnvuj779F4h+KYpseYwAwABMzCrVeCtjd7e7W0jMi/WIj/VG8uRNg9QzAyaPnRO98e76rAkz4k6VWI2zdek2qZXpZGwTdJrilkX/S5GAEamAE1Hcq/d9NZAHyrp9acD+ubQZA6xiJ+MuL+JPsdVvLeAyYskKdzo5Hnd/fPynQRdSzFvY07xcs+UuKYRvrGIAK/RZH9Y/+lsAJ8S9iPkCtbwqkPQAkQqMiUhMozg/PEGTNBwNQXQN0153FDwXIYFz7sY8UngHQboJE/2cNfWAEKmwEzABYxF9UuXrIHajl+L8uurvbHTERoyw/E7C2UF0BHOW823Jc92jQcr0iov7wM6YZt08T3Y97P5277StXSPzbGOlP+s4YgCobgIXi0//KMNT6roD9uwCy9K8SSx91X+u2CGodv+fC3s2R9vQPBTrvx0VmAJT618RDDMBYA4QRqKARUPAUzgEoKgOgz6ltBsBu7kP0X370r38DDED1DZB27stb9MP3nzeqn+b1f3nkdYj/5OwHBqCCBkB95zDR17Fhx80szHte71PL2wJHHfcahL8awm//DuvHqi+AdYzcs77mmz9d3FBAURkALTVk3H9s5J8cIsAIVMgIyAB4Ud9TfLl60H24VlkALVs4scf9nQkPZTWMwMbZt4plSKBCnYwZCd3ERxv2hJF6Xo81Lj9NFD/L87XB0OnF1mz1mxTyWesYgAr9NhU8dff0ov2iy/Wj7rZaGQBdrC5awn98+6D4US+PBwagPhkQ3dJ3y5b8TcBHrr0291UA2mWQ6H+q6D80DRiBChgB9Z2WAfBp/SATkHd9ZZ/7fu0MwEv73X1E/oNiXzYPzTS3KJOy+iy0d39ekb+9b97R/y/+82/U5kJB4/F0PDAAFTEAPvJXFqDAP5mOlf3uD7UzALpoL3hxBqAf+VP3KwLK4IHoV1/0w3+j9eMuuuJ9+WYB8pwDEC/5k4Ah+vMzwAiUaAQUPEn4LQtQVKnPXNnn9tXPAOxz+8qOePn8MxkIbbYUiguP62EGdBtfbdlrEXvW5Sxj+mmyBrrLn+YyIP6ZmR8MQAUMQJHRvxmO5SfdUu0MgC5aAmyRbrLsJDIBnO+JtXHImo+WZCL69WTwg+/ktzQwrwxAvOSP6H/+yD+ZPcEIlGEE4gyAGYDlCcMAWZ5fftKdqp0B8JsA2R3vbCJgsuS8Hw4wsT+rzJCPGi4GoJ4MlH7cel0+SwPTRPPTZglafpe/pGBnXccAlGEAupPH/rMUfTMaPgtQRwPQ3eXWx2UALNKlHIz88+KBAain+Jtp0w56l7wp+6GArDMAwZI/ov/so//QTGAECjYCoSgX+Xhlr9uoXQbA3+AnjPj1mPqZiL9gHhiAehsAGYHfPpD9UIAyAFlmAZ5/6jzG/fMVfjMBGICWGAAtM6ydAbAJeHlFtLzvdJkDDED9DYBMwJdvyXZpYJYZgHjJn4SJ6L8YEyAzgBEoyAj4qH/XhKGAnM5HkTu3VibAR/txlOvF2iLe7fHEQOq9jEhBPDAAzTAAJ4+eE73z7dkNBUw7vj/s+TrGXf6cReZFlxiAIg3AhMl/3iTk8JzomDu/NgZA9wEw0R8bqZv4jVotwPmRqyim5YsBaIYBUBZgx6MuuuCCbExAFhkA7vJXmviHZgMjkLMRGMgAWKRfUBktuktrYwBWD7rLlAEYECnqpfLQOJJNKKOsP4u77sxmKGDe8X9F/w8/+EbG/YtL+YeiHz7GABRhABTdFyT6/c/RCq6Oe1dtDEB3t7tiIPIfJf4W+XN+uDnIkA8GoP6iHxo3LQ285ur5lwbOmwH41395L+JfvvhjBHIWf/32/O5/RYt//Hm1uiOgLtYyADIC4zIBnC+GDwagWQZAHdLC3s3RxRfNNxQwTwZAu/2deuEcDAAGoBXZRfWhPiqXKBf8t/z/3NbaZABOPuNuGCf6Zg4ox4t/lnwwAM0zADIBP7t3vqWB89wNkN3+KjH2H0b/4WOGBDLOCvQzALtcpJ1VZQKSpRmD5HGrz3r+1LPus7UxALrYpHgR6Y8X+7z5YACaaQBkAv7x07MPBcyaAbjn7nco6pPIhKLD4+rwwABkbABKywDscdGJPe6fa2MAdLF+H4AJ6f+kSaA+3iTMwwcD0FwDoJvuvPny2YYCZpkDcNNNV0cnj/kb/WAAqiP4o8wXRiAjI6AMgEXyRZdrC+6O2hgAXayJVTKypT4o8kXxUONVtMhfMxn8+fcaCpjeBCgDMG0WYN+OC9SORgkOx6vFBgOQUb9nQwAm/sl0fl51v/xwt7u7NgZg6XH3PTIAva2PJfBmhsosMQDNFP7Q0H3tq9MvDZw2A/DTey8n9V8tgU9ruDACcxqBMjMAL+1399XCAESR27Syz33fIlvKXsRfNgcMQPMNwPpxF13xvumyANNE/7d+6UrEv57iL5OAAcjAACjKVwbA/oqoKwNQGwMgl7L8hLs/zACY+I2KgDk/OCyQ5JQFHwxA8w2AsgFP79wUXfja9CYg7SqAYLc/CUnaqJPnVY8VRmBGI7C810W6yZ2Jvk/5F1Q/ud/9uhYZAF2kLtZEi7IiGYC97RDAMCXe1sc/+E76pYEf+/jkOQB6TrzkD0GvnqBP+2+CAZjDAFjkX3T54lPu4doYAF2shD+PSHbY+9rnmNmwerJs83kyAO0yQFuvS7c0MM0cgO9+622k/usv/EmjgBGY0giEGQB/u3vtBfC4Oy0zEJaWGUget/os51980v137QyACS5l+VkADEC7DMDxA5ujS940eShg3CoARf63fP4DzPhvnvjLDGAApjUAtgxwiOibuOdVrjzl/lI7A2ARuBkA6oNGoEgeGIB2GQANf/z2gclDAZMyAIf2nIcBaKYBsIwARiClEVAf6ue2BRF/UXUyAPGmQmYmKAfNxCQeGID2GQCZgC/fMn5p4KhVAIr+f/aTyxD/Zos/mYCU4q/fkt8JUJP+iv7b5aKV/e4PtcsATBIlzk8n4vPwYifAdhqAk0fPid759tFDAaNWAbDkz1mE3JaSTMAEM6A+VBG/H+8vuMQAkAHwd1Wc1QRgANppABS57HjURRdcMNwEJDMAivy3br0m0vbCLPdrlQnAAEwyAHviZYBxBsDMgGUE8qzXchWAF6u/JqJc6oNCXhAPbSYhMeCvnQzuunP4UMCwDAB3+WuV8CczHBiBEf2k+lAT+aLLl/a7hxgCIAswaB6m4IEBaKfwm+Hb6LjomqvPXhqoiN+yAHocL/lLigL15s8FsH9jDMAEAxCKvx4XUa/VRkB+HwCLbCl7ol0yBwxAuw2AjMDC3s3RxRcNDgWEGQDd5e/UC+eQ+m+P2JvoDysxAgkj4HcALHjs38xF/QyAolMTPYtUqRrzuIMAACAASURBVA9G8AXywABgAGQCfnbv4NLAMPpnyV+rU/9JE4ABSBgArfG3iL/osn4GwMSNshoZgF0IoKXD217+46fPDAVYBiBe8qdOPykE1NvNBCMQGwGfAdAOt3Ha35cF1XV/nfrNAUD8KyH+ysSo8bZd+Pj+vTZw4vCm6M2X94YCNO5/21euIO3fbpEfZ/IwAGYAtANgKP5FPd7lovoZAMS/MuKv1RhaqoIAYoKsDfz59xoKeJVf8qdtg+OtYccJAefabRJabwT8+n+L+AsudTvgKHKbapEF6E8ClAngrxIM5Fyt86eEhQT/a1/dHD30y4uJ/tst7GmNXesNgLZu76f99TisKxsQ1rM8v9NFMgC1EH9dZN8AhBMByQiUmhFQ40T4YTCiDahzTysEPK/drNppBDo98Vc2tW8Cdvb2uFHfasetNDPg6xmcr6cBIPqvRPSvLAwGAPEfIv4If7vFfBYz10oDoH00vKhbZB+UJvJ5nZfhWNnnvl+/DIBF/ZYJoN7LApTEY4gAkBVILPVpGSMMAAZgFhOg17TKCGwc7xkAE/uiSxkA5gCQURiZUfBpKd2mco+fMRotP+WiladddPKAi9YOu2htgQi4ZeI+ztwh/Aj/rMJvr2udASha9O3z6p0BQLRHivaoCZLjxPzkoZ6Yrz/vovVjLlJqCmGDwZRtAAOAATAhn7dshRFQX6sUv4ly0eVGx91VzyEADMAZA6BxI0XpT7ho5akz0XlfzI8jZFMKGeZnuiEMhB/hn1fwk69vhwF4fvCmdmYGZARCM5BHXQFhd7e7GwNQcTPhbwupFPzeOP1u0TqROkI9nVDnxQsDgAFICnhW9UYbAQVpJvpllLUyAMtPuj+MSm/X9ngcvS8Pid41QYTIFQYVbgMIP8KfldCPep9GGwDNobLovuhSGYC1BXcHGYACMgByd/0U/SEXyfkh8Ih7hcU9jfnEAGAARgl31scbaQT6BkAaFKb9g7o/HtR9piCoz3O+VgagDhkAn663aN6Engl1acSE51QjnZ/m3wHhR/izFvhJ79dMA3D4jPCbAeiXSZGPDUJW52Uk1o+628gACPSUf0qf+LT9073lcD6iR+jTiAfPqY/Qj/q3wgBgACYJdl7nG2UEtPpqIII30S+orJUBKCMDoNn1A0J/zEURQj9KGDhef3Ef92+I8CP8eQl72vdtlAHQEKCWAmpPFe2vIq1RFrlvCiwwVfRvj0NzYMdmPH9ij/vn2mQA8jYAurWtZtrLlSmiR+gZo6/5GP04MZ/lHAYAA5BWqPN+XuOMQNjXaB8WaZC0SEu7tRHbwNh/aAJC8bdhgpTno477QisNgI/sJfYH4gl5RPWzCAKvaXbEb/++CD/Cn7egT/v+jTYAoRkIHw/NFlgWYMpShuLUs+6zjTcASqkoteK3r11gl7uwQfGYLEeKNoABwABMK9BFPb+VRiD8zWo1mVYTKFOgwNYPFYRZgTAbkDAJMgC1uRdAmiEAv7uRZuFrch5ibxEcZTsi9az/nRF+hL8oIZ/1c1pvAEIzoMfeEGhOQWgIEsJvJuHlo+4fapsBUApDYyNe7A+zrj7ZEKgT3c/ZBjAAGIBZhbno12EERgQ54wxBrQzAS/vdQ32x12z8EV+Y47ChDczVBhB+hL9oAZ/38zAAKfUwNAQbi+5zlc0AREfclqjjrou67r6o6xbp1Ofq1DFMKX8gtDN/T/Z5O2Rej4koow1gBKbt55bcPt0VMFp2V0WRO7dUQ+BF/0V348tH3YN0xAg+baDQNkDkj2iXIdpZfiYGYFoDED5/yXXjgPujhRqBqOs+evq4+3nUdat0+oV2+mQGwh9Aux9jADAAWYpxme+FEZi/L1uMTrjvKTOQixlYfs5dtLHo7oyW3AKij+jTBkprAwg/wl+mWOfx2RiA+Q1AGBw+4ofjI7dpbjMQLbpL4zSDfQD/WNn+YxlXSrimaQMYAAxAHiJchfdEW7LtA/dEL7obZzIBGt/3ET9p/jSdMs/JtuHC82yeCD/CXwWRzvMaMABn/+7n7wuX3D4ZgdSTBpU+OL3ojpDmLS3NO/8/eh4Nifcs898FA4AByFN8q/TeGIF8+to90bJ768iMgJ/V33UPRF2/tKjMzo7PzqcBwLV+XBF+hL9K4lzEtWAA8umnPNeh+wnE4v8IUT9RP22gUm0AA4ABKEJ0q/gZGIF8jEDkVwyEkwSjXuRPhJgXcN6XtjVdG0D4Ef4qinKR14QBmK7PmK6PPeG+54cD4h38pntxnhfGe/NvQRvAAGAAihTbKn8WRiCv/nDRXemI/iuV8kX882rs9XhfhB/hr7IYl3FtGID8+q773Onj7iDjvpgA2kAl2gAGAANQhsjW4TMxAhkbAa32UwaAm/dkDBYxrYSY1imbgvAj/HUQ4TKvEQOQvU6tYACyh1on4eFaq/HvjwHAAJQprnX6bIxAdn0WBoBonWi9xDaA8CP8dRLfKlwrBgADgGiVKFpkDbL7AWIAMABVENU6XgNGYP5+iAwAQoqZKqENIPwIfx1Ft0rXjAHAACBeJYgXGYD5f3gYAAxAlcS0zteCEZi9PyIDgIBiogpsAwg/wl9nsa3itWMAMADVEbGNjos2jrlo/XkXrR50i6uH3IGVfW7f8pNu98pT7i9LO91f9dfZ4bYtP+n+8NJ+99DKfveHtUPuT6eOuJ3xvgwrBYoSEf3sP6Bp2WEAMABVFNFCrun0kju28YLbs37U/Vn9nfq9F590/239oh77+n73B50b0i+uRqPbD0Zg+n6MDMA0QitxP73oNtYOuZdXD7sFCbv9dXe7I53t7kRnu4uOB3/Jus51dg4+J3y+Pe5sd0+e2O0eXjvstkVdhyGYvnFPK855Ph/hH91xFyI+Y4SDz8/n32ZDAY0EvbPdPdN93J1WX9j5q9s4/lcX2Z/VfT855LieZ69TubTLdfV+nZ1uuwIoMwneVDzrnpDJ4I62qQNiDEDSAKwren/OLVnk7huvxH3nGeE2AVej9oIeC75vxGrkVo+Fvl+34xNKMwl6XWe72/D1HW6bsgVy0Mlrpp66wecp8uPeGwOQj8gg3lXiuuQWFNlLnE3wTeizLON+sW8ihr334mPusK5DQZT6TV3Xy0fdfvrKgb6ynQbAR/ELLgqj+DiC3/ANNxZ739DsscqEuA/UR4h6ENFPzAzYc4eV+iw7vrjdPb7+nPsdTnegMY8T4LLOIfxVEiiuJRfDtPase0IZy2FCXLVjyjj4DMIOt03m4MWnelnWeOi1bcMIzTUAStcrmtc4vBqoUvUS+cXtbtWieYvkTVz7dYvc5y3NFNj7jKrb8QmlGQC7XowABoDUtstF1OA6mauykRJ+32/GqfqqCf4016MhXPWpnd3ujzIHGl7w87J6wwplBRF5fm4zDMDGcRf5cfl4wp0fJwojdxPgxLHQCIx9rMjfMgCjykC802QGTMStTIq71dOUSnWREaiUGSDyJ9purDGxiN/3XcG4/TRiW4fn+uHX+PtpSOH4dvenk/vdr2UM4uGEumcM6mcAbIzeIvpQ7AfS9ztdlKwPE3kJbHi8X4+Pj6rb8VSlmQMzIlZPlpPOx8/XZ/rPTdYxAnm65WneGwOAAWicAehH/Op3Giz8E79b/P0X/+oWtZrL5hnE87PqNGG7ugbAp/C1lC6eba/0fXeXW++L9a5B4e4fnzXKn+Z1CdPgI37LDJg4J+t6TfwXirdlAKwcKe4JsbfnDSvVIKMl12XCS+FZAYQf4W+c8GuukbKMvo9qs/Cn+O4aYtYwgpkCrU6o8B13q2MAlMYPxV6CbhG8lSbyVp9UJp9v9ZlKE/249CJuEfuspZmFZGnvlzw+oR6aAY3NRUtuHyagUBOAAcAANMsALMXL7rQaKYUA8pyzsyOaeBiaggoNH5RmADa01E4TLLRBTpjGn0mcp4ne83xuwiT4iD/IBPh6nAWwiD9tGYp72sea1BLvIzBN+prnTr/nAMKP8DdL+LtuTSltpbkR9bNFfV4mi9vdguYUaImidLCkvV4KMwCL+pKaPNHZ6XYNzMTf7tNLfhx+UkQ/63kzFfb6Wev2urC0TICJ/ai6HR9aWmQ/Z+RvZkKf4T8nLrXUhUxArpkADAAGoFEGQIGDbdIzr9jx+skGItZEv2+B9iw4veiOFNBn52QAllxXX0LCE+/adCadr7H7XWfS+yam84rzpNfb55RSTsgMmFh7ExGIdyjo4WN7vgn9pNJ/5x1um+ZVFNCo2vQZCD/C3yjh1/LH7m73KKI9WbTzZuS1c7f7owLnnAxBdgZA6SIJvva5NzFuWjmVechiroCZgWRmIFm3540ovWHoDUU8GW+V2SaRzvO7YgAwAE0yACvK0Ppgg/H+yq10kCHQ5EIF1xlN8p7PAGj3JI1h6MLKFnsT51HXkTxv9VLLMDNgcwOCOQNhpG8ZgFHlpCyAmQCN6bEl5tyZEIQf4W+S8K+pL/dr3RH+ygn/sEyDHzLY4bbFc7zUFmcJdGYwAEuuq01nlCYysVVK3wtpXCaP51W39827NJNgn5O2rueZ8Npr+vVpMgQW2dv7WT1laebAzIMaD5MDZ/rB2I8MA4ABaI4B6LhtXlASN+oZJjwcK39oIPlv4G9Ct8NtiycTqm+yfmpSOZUBWNQuSH7P/HiJngTRRNEeF1mXqIafl6ZuQmyvS1u35+VSWibAVihYPc4KeNMQPzYRH1Umxd7qyVKv1920pmgskxpTG84j/Ah/c4S/69Y0vpwUFOrVE/m0/yZaXeCDu3TzvVIYgCXXNeHvxhP4khF/Veom6mWVU5mDUOQtsp+2TJkBGGcWNGcj6jrdZ7sNAj7vd8QAYAAaYwBWnnJ/8X0Daf9apP3TmgA9T8M52rJ5Qr++4sZMJljR+H68A1/kxT8R+XuhjWf063ERdfsc/1mJ65EAh8fnqZuY2/tZvdAyNAlBBkA/2lGibsct4k/W7XhYag5HvI3lvALZ1Ncj/Ah/Y4Rf4/11uXvfNKLHc8/OXKhv1547I4zAqht2QikEn+pPjO1XJdKf9jr6Ij5hjoI9b97STIK9z6i6jkuI7fxAPT5u58eWozIB9v6jzttxDT381W0oHRilSx01VehHfS8MAAagEQZAM8gZ7z9bKJtsHtS3a8O9YcvAXXwf5F7Ht+S6Lz7p/tsLVxDZe4GytftB6YU4qIevs3Mq7bgdm7VurwtL/1gCFn/OqLqO25++jz22548qTZzt/Ki6Hc+lNJMwrDQRH1FapJ8qE9BbgfDkQJto99AAwo/wN0L4oyW3oCV+TRY6vtt4Y6MVYNpuPwj69ygD8EMd0HiB35LXxvljUfWCNkUmwAvlmOfPe37a65nm+X2RT2QK7Pi8pZkDex+rDy2nyQAkI/1J9TFmQUZBfz4b0G7xlynGAGAAam8AdEMaRf0I5HiBbAsfzQ/QvXeiJfdtFy27tyrqtwjaovQ09fC5VXjshTXIOIyr61zyT0IcHrN6mtJE3H+mzFMef5YBsPe2eizafpggfmwR/6jSMgPDyv5rdrpdOe1ANSrVXpXjCD/CX3vh1/wuTfL1v2cm+jVuot/MhqWnEc+8tM9d4vTf6kF3WT/6jyN/L2RBJJ+s9wU/fn7R9eT1TFv3Ah18v3F1/972PTOYaGjmoP++saAn63qeF/X4/EA9Fn87P7YcEfH3hT5x3kyBzmuNaZwNaNNKAQwABqDWBkBj/X59OGv7Ef6E+VM26IXt7n958bf/HX/MvU0zBvtCLnFsyF/fHMTfx+rDyr4IJ+YU6Lj9SYjteclyGnG3585dxmYgFuz+jYCSdRN2bxZi0bdjZgasHpY659eXagvKXlq8KpF61teB8CP8tRZ+n+5/zB2eOTpMiAXv06xhA/XjZ4m/mYCo416z+Jj7tYTfC1uNDMBZ1xtH7P3jQQTvjU0G9aT4Z10fZwy8iAcZglR1i/TtdVZPWfrP2O6eTLG+NGthLur9MAAYgFoaAFva5408Ik7UP6wNPOb+tPKMe4Pp/ciys9P9nxN73GpTMgBpv4eZhWGljiX/JND+uSlKE3N7vtUzLROZAMsAWBkLeD9DENb1OO2fv+YdbluDVgsg/Ah/LYVfs/s1h4tIvVmRetb/nif2uH+OIrdppOgnT/ghgR3u/lA8B3YCVJYgkSGwetalXYO9b9q6f55F+natI+pemPWc+HyybseHlX1Rj19v9VlL/xmBqbD6sNKLuK65oDkBSZPQ0Q0pJu84VVQEP+vnYAAwAPUyAEtun5+8LeM+LNrjGFx6OwIqo//upL6nruvFy08MGgEJ67RinPfzzRTkUZoZGFaGIq/H4+qhgNvzwmOZPbZMQGwMBkxCkO4flhkwgdc5ezyu9Ne83W1oZzF/m8p6zRFA+BH+Wgm/xvhZz4/pmWT6NJR//K/u/0st9JOeqJUC3d3ubq0WMDGfudwTb9wTR+Uzv8+Urx9nDrwgx+/nDc7j7rR/vmUM5ihN7OctxxoEE/0cMwFmCqwcMAaKOOLJgn7VwJLrBhtOzBqZ5/06DAAGoA4GYEPm2u/Oqt/3X73hJsIlyzHQBrTqY3G7+460epKez3w+OuK2LO1wn9XtgL1QDhFhCfo4UZ/3/LDP9WIdfK7V8yzNNAwrpxV7E3d7ndUzKRPmYFjkb6KeLAdEPmVWwF7jhwd6KwdWKmYGEH6Ev+rCHynaj9P8JyT6k6I+zrczM6B+VpocHXPnzyzss7ww3j/g3+y+AV2L7OctzVTY+4yq23Erk8+34xNKMwlmWqzuS4v84/fwgiyjkcgQJOv2vGGlifyspZkCe73VVUp8h9bHZQZsWMBeb/URZV/ghxmCOBNgz7HSm4HDbltF7jyIAcAAVNMAnHCPSfTZua+dYp7WxGk3v6Vd7t80V28W7c78Nd3d7gpdUP/ugdplWEI5bRlH8f3XDalLmC2LYKI9rG7PC0sv6vHr7fG8ZV/8zWjE5kDH+yKtzwzq9tjOW2ninazb8ZnKhCnwGYB4fkAY8fvjCdHvC/gwsU97zEzBX3sbCyl75O9Z3ROhvNP84fsj/Ah/1YR/49QRt5NIH8GfJP4SfQ3Da2x/qhn9mav9hDf0ZmC7u1N3IJrJBFgkH5gHL+LB8VR1E+QZy3HGwAt0LOr+eZYpmKI0kc+qHGcOJOQ6n6pMmID+65LHE3UzCwNlIP7+eKLe2em2v/iUe1iG4PSSO5bzUAEGAANQtgFYjTpum+bJaDKfvzPfdtL7k8SvrecXt7vHl7a7OzOd0DdBvzM9HS26S7WvQGe7+y8f1UvUs/qTAAcmYcBsxFF+2syAnjdO8Gc5lzQJYX1a0R8n7jOfs8yAyoSYj6oPiHv8mtTHEuI/7Ecdu9xH1UEqMsrIFCD8CH8pwr/xgtujCXxxhP8MY/lE+sP6vfCY34xvp/s//b36M1XkEt/MTyDc6a5RGkPut/tECjNgIm+mIVGXMIcmYFTdjvvSMgKWUbB6ylLv0X8fi/jjY16MdU2JOQJ2fFhpZsC/b7D+345PKs0A2PMG6ibyus4gA+DT/UFdIt4/b2bAzlt9RGkGwEyD1X05TPT1PuOO61ziT9tU+xub7HZ/VMZABkFZA3Ww2pBoglHAAGAAsjcAHRdFHRetHnSL2gtDGU+f9dztjvjfon5TTN4767ec/G23ve6j/F3u35Z2umuiyJ1bokQX+9HalnDxMfeplX3u+37ugIl81mVoEvQ4UTcxt2yB1b0gh2JvIj9l6TuD4DVWV+kfx6KfrJuQq7Tn2bFk3Y7PVJpJUBmIvDcJQT0UdnteeCz141D8E0KftjPwnz/itbrvtb+vxU63S0MM8Z8e+z910joWlxzv8YDDMA7b3ZPqm2z5s+8j7HebEHj/e9ESPUQf0R/VN+m2zI+5P2m+XOcxd93yXvf6YlW3wp/mVxVsdzcv7nA/Xdnn9mUyVBCKfTBc4EXeMgCjyoT42zDBqDI0DPbYC7XexzIFU5Qm8rOWY81ALPoSbT1vbJkwAf3nJ48n6gOGIBR9PS9NfcSPKK1JCJ/X6W1W5JdSWQet0v/FY7Ac741Fw2H4mHy/vSDwCHzKvkkbpC097r6nZXpz7chXYd3O7dK0rrGzw31waaf7vzIFPr2WdXYgMAXe3VvdMgUjTIAJ/DylmYNhZVrRHyvycdo/9XNiM2CRv5XeHCTE3Ufg8bEBoZ/mWGgCUv6gQlHn8dlDJTCBCW2gnDbgDeIOt80PcQfRfaVn7Oem3jm9sUyBxkp0cwNNllh+0i3NlSlIZAgk6Hq/gdJMgB23+ohyrCmIMwAm+l6c9T5jMgNmBvz7BsMBdnxSaQbAnmd1lRb5e7EP6nZ8aDnCDCRNQbLujUIo+nqfNHXMAREXbYA2ULE2oFvrdna4+6VFClQ1xy0n2eNtkwRCV2VDB3JeJ3a7h/143TyZgtAUWCYgyAx4czCL+MevSRoEL8zhucAkmGirtD8Jtx03MU/W7fhMZSIT4E2AjsV/VveCnjAD4bHUj0MTULEfOdFUOdEU3OFepTbgxX67+y+N3WveWq7b7SbFjvr0BDTBUJkCDR9okqGW4UyVLQhNgEX+yXKECUgzR8ALtj5jitUCs2YAUpmDWPS9uE/KBCREXybDvy55PFEfMASh6Ot54+qYAqI/2gBtoIA2oP30/SS9x933/PJ1RfYd95rpFYhXVJKA1lauHnQfljHQ5AztSpc6YxCaAssMBGWYGUhG+bPUzRyoNBFPW84U+SfnDIzIBIwT+wGRjw1A6mOhCSjgx16lCINrIeKlDRTXBuKVQv+lm+dI6BUsKmispGhxUfkTkDE4scf9ncZzdPvj/ioEE/14SMGLvA0HJDMCVp+QGRgwAzb2b0MAQfrfP8/OjynTmgJ7npmDZL0fyeuz5skIjIj8Z54TgBkg+qMN0AambAN+Ut5296Tmiil1v7Td3ayxepbe5a+njfgEW4UghyinKGOg9eNnZQzMJMTZAG8SgsdWHxB+E/wUpRdqvV+QCfDvGdRNzJOlif1c5YhMAHMCiotYiA5hTRsY3gYUzSttr5VifkLeY+46ltw1QoKr8yVs0mG/POK26E5Myhr4FNIu92+xQdh1Yo9bDUV/1JwAOz7MGJjoe+GWSRiTAfCvDyYGJk3ApPpQczBPBmDEnAAbCiATMLwjo4OHC21geBvQ2Lx2ApXIa298TcTT/vhE89XRSK4kIKAhBb+HwQ73WaWfLHtg5mCY6E86ZqYgLPXY/iTk/tyQcqjIy1RM85fIBAzLAJi4W2miP1OplJ9NEJwy/UdHOrwjhQtcqtoGNNPeInmJvFL2EnnG5gNh4WH9CahBe3Ow3d2shv7SfndfZ4fb5ocWbFWADQ3Ekb+JvhfsCRmBUSZg1HEzAXbe6iolwL4+LiNgY/72fKuPKM0MDDUJoeib+CdLzADjwbSBWrUBS9Nr3byWa/vN3eIoXsFSP7MauU317+H5BhCYkYA2k/D7Gux01yjN5Tc80kzVHe5+mQR/z4TYJEiw+6KdmCNgx5NlKO4zPw5NQSDywzICY8U+fq09Z2QZmgI6/lp1/FWNNrmubDMh8W2N/YQ7zZeSwGuve43Fay7VjN0hL4MABJIE5JaVRXhhu/tf+pFpn2llErTfgW67bBMVZ50bMNQYjMsAWORvZWAKJOoW6SfLkYKfjPhH1TEDmAHaQO5twG+Cs9Nt12x6L+5xet7Pf9rl3r38nLvIIvhkX0UdAhAoiYBuLalsgsbRvBvXelcth9EmF6FRmGYeQPjcEZmAYaI/VuzJBOTeiRPxZhvxNoFnvJXtNr9MTjeskbDrpjWPuesUXMSp+fbcnrakfpqPhUDpBOTitapBcxN8VkHzE7RZkjoFGQYNQcSmYfExd9in/CziT5aWAbDjVh9RjjUHYfpfrx9WJwrEQLS4DWiGvG5/7WfJK0rf4X7aj9R1I7XeUOLfKRDQb5yZ86V3t1wABJpBQEMRo4yDOiF1Rt447HDb1En5rTaDYYGx4h8bhqGib2agxR1/E6JQvsOZzES8O92TfiY8Qt6MDpJvAQEInE1AUYiGJ5Rq1DacilK0n4ImPfaHKXa4+9UZak6Dsg5mHrxpIBNA1F9B82fRuCbsyvj6detxet237R3us8v/z21Vm9cEOf0G2Gv+7P6BIxCAQIsJjJtUpA5TmQd1nupE/ZJKdaiaEKmhC02K3On+r5kJnw6NhzE03ulNRa+D1qzlw36JUgXFhOj4THScJQuJdBxtP7O43T3eF+s46taQl6XQfRvSUNgO91lvUtXGdrpr/LyaWMBlZpnp3uLOiq8OAQhUj0BoIsLH4640aS7U0fto7TF3nQRgwFxsd3f6Nc0SDA117HD3m8HwwtLbh7yXuWi5wdCcEYmu/9N91HvDQU+Kk4nw8e3uT364SJHzY+7XnqfGs7X7m6LoWJi9OPf2dr9TAq0/vxvndnezjXfLFNqYt4wiIj2u1XMOAhCAAAQqSUDRpYyJREwzsyVo+vNzL3a5d2sYxUekO9wHZVb88iytwY5NizcucWbEC6Ui2niCZz/C1bptrRLpLSn1QmoRr8+s9G6tfY0Jq1+Cusu9W9ega9F1KSvjhbbjXqP9LOaFGZo2PQ7r9t7Djtk5SghAAAIQgAAExhBARMfA4RQEIAABCEAAAhCAAAQgAAEIQAACEIAABCAAAQhAAAIQgAAEIAABCEAAAhCAAAQgAAEIQAACEIAABCAAAQhAAAIQgAAEIAABCEAAAhCAAAQgAAEIQAACEIAABCAAAQhAAAIQgAAEIAABCEAAAhCAAAQgAAEIQAACEIAABCAAAQhAAAIQgAAEIAABCEAAAhCAAAQgAAEIQAACEIAABCAAAQhAAAIQgAAEIAABCEAAAhCAAAQgAAEIQAACEIAABCAAAQhAAAIQgAAEIAABCEAAAhCAAAQgAAEIQAACEIAABCAAAQhAAAIQgAAEIAABCEAAAhCAAAQgAAEIQAACEIAABCAAfu6w6wAAAlNJREFUAQhAAAIQgAAEIAABCEAAAhCAAAQgAAEIQAACEIAABCAAAQhAAAIQgAAEIAABCEAAAhCAAAQgAAEIQAACEIAABCAAAQhAAAIQgAAEIAABCEAAAhCAAAQgAAEIQAACEIAABCAAAQhAAAIQgAAEIAABCEAAAhCAAAQgAAEIQAACEIAABCAAAQhAAAIQgAAEIAABCEAAAhCAAAQgAAEIQAACEIAABCAAAQhAAAIQgAAEIAABCEAAAhCAAAQgAAEIQAACEIAABCAAAQhAAAIQgAAEIAABCEAAAhCAAAQgAAEIQAACEIAABCAAAQhAAAIQgAAEIAABCEAAAhCAAAQgAAEIQAACEIAABCAAAQhAAAIQgAAEIAABCEAAAhCAAAQgAAEIQAACEIAABCAAAQhAAAIQgAAEIAABCEAAAhCAAAQgAAEIQAACEIAABCAAAQhAAAIQgAAEIAABCEAAAhCAAAQgAAEIQAACEIAABCAAAQhAAAIQgAAEIAABCEAAAhCAAAQgAAEIQAACEIAABCAAAQhAAAIQgAAEIAABCEAAAhCAAAQgAAEIQAACEIAABCAAAQhAAAIQgAAEIAABCEAAAhCAAAQgAAEIQAACEIAABCAAAQhAAAIQgAAEIAABCEAAAhCAAAQgAAEIQAACEIAABCAAAQhAAAIQgAAEIAABCEAAAhCAAAQgAAEIQAACEIAABCAAAQhAAAIQgAAEIAABCEAAAhCAAAQgAAEIQAACEIAABCAAAQhAAAIQgAAEIAABCEAAAhCAAAQgAAEIQCBvAv8/lQA8Z8oBzTcAAAAASUVORK5CYII=;" vertex="1" parent="WIyWlLk6GJQsqaUBKTNV-1">
          <mxGeometry x="530" y="-36.410000000000025" width="60" height="60" as="geometry" />
        </mxCell>
        <mxCell id="pdcsiApNZIq1L77JdlHw-23" value="" style="shape=image;verticalLabelPosition=bottom;labelBackgroundColor=default;verticalAlign=top;aspect=fixed;imageAspect=0;image=https://upload.wikimedia.org/wikipedia/commons/thumb/3/36/MetaMask_Fox.svg/2048px-MetaMask_Fox.svg.png;" vertex="1" parent="WIyWlLk6GJQsqaUBKTNV-1">
          <mxGeometry x="600" y="-36.41" width="60" height="60" as="geometry" />
        </mxCell>
      </root>
    </mxGraphModel>
  </diagram>
</mxfile>
